<?xml version="1.0" encoding="UTF-8"?>
<svg width="160px" height="30px" viewBox="0 0 160 30" version="1.1" xmlns="http://www.w3.org/2000/svg" xmlns:xlink="http://www.w3.org/1999/xlink">
    <!-- Generator: Sketch 46.2 (44496) - http://www.bohemiancoding.com/sketch -->
    <title>Group 9</title>
    <desc>Created with Sketch.</desc>
    <defs></defs>
    <g id="Page-1" stroke="none" stroke-width="1" fill="none" fill-rule="evenodd">
        <g id="Homepage" transform="translate(-285.000000, -23.000000)">
            <g id="Group-9" transform="translate(285.000000, 23.000000)">
                <g id="Page-1">
                    <path d="M73.5816207,20.3586207 C73.035931,21.1655172 72.2959655,21.8017241 71.361931,22.2672414 C70.4277931,22.7327586 69.4150345,22.9655172 68.3235517,22.9655172 C66.3084828,22.9655172 64.5767586,22.1896552 63.1284828,20.637931 C61.7011034,19.0448276 60.9874138,17.1206897 60.9874138,14.8655172 C60.9874138,12.6103448 61.7011034,10.6965517 63.1284828,9.12413793 C64.5767586,7.55172414 66.3084828,6.76551724 68.3235517,6.76551724 C69.4150345,6.76551724 70.4277931,6.99827586 71.361931,7.4637931 C72.2959655,7.92931034 73.035931,8.56551724 73.5816207,9.37241379 L73.7076207,9.37241379 L73.7076207,7.26206897 L76.4782759,7.26206897 L76.4782759,21.8172414 C76.4782759,24.2586207 75.7751379,26.1724138 74.3687586,27.5586207 C72.9414828,28.9655172 71.0523103,29.6689655 68.7013448,29.6689655 C67.8407586,29.6689655 67.0326207,29.5603448 66.2770345,29.3431034 C65.5213448,29.1258621 64.833931,28.8206897 64.2146897,28.4275862 C63.5954483,28.0344828 63.0654828,27.5689655 62.6246897,27.0310345 C62.1838966,26.4931034 61.848,25.8931034 61.6171034,25.2310345 L64.3564138,24.1137931 C64.6712069,25.0034483 65.217,25.7172414 65.9935862,26.2551724 C66.7702759,26.7931034 67.6728621,27.062069 68.7013448,27.062069 C70.2756207,27.062069 71.5035517,26.5965517 72.3852414,25.6655172 C73.2668276,24.7344828 73.7076207,23.4517241 73.7076207,21.8172414 L73.7076207,20.3586207 L73.5816207,20.3586207 Z M26.4793448,29.1724138 L23.4882414,29.1724138 L27.0775862,21.5068966 L20.7174828,7.26206897 L23.8660345,7.26206897 L28.4628621,18.1862069 L28.5258621,18.1862069 L32.9967931,7.26206897 L36.1453448,7.26206897 L26.4793448,29.1724138 Z M13.1608966,2.97931034 L2.89665517,2.97931034 L2.89665517,10.2724138 L12.1534138,10.2724138 L12.1534138,12.9413793 L2.89665517,12.9413793 L2.89665517,22.4689655 L0,22.4689655 L0,0.248275862 L13.1608966,0.248275862 L13.1608966,2.97931034 Z M15.9316552,22.4689655 L18.8283103,22.4689655 L18.8283103,0.248275862 L15.9316552,0.248275862 L15.9316552,22.4689655 Z M38.2864138,22.4689655 L41.183069,22.4689655 L41.183069,7.26206897 L38.2864138,7.26206897 L38.2864138,22.4689655 Z M47.8579655,22.4689655 L44.9613103,22.4689655 L44.9613103,7.26206897 L47.732069,7.26206897 L47.732069,9.37241379 L47.8579655,9.37241379 C48.2987586,8.62758621 48.9757241,8.00689655 49.8887586,7.51034483 C50.8018966,7.0137931 51.7516552,6.76551724 52.7382414,6.76551724 C54.6274138,6.76551724 56.0809655,7.29827586 57.099,8.3637931 C58.1170345,9.42931034 58.626,10.9448276 58.626,12.9103448 L58.626,22.4689655 L55.7293448,22.4689655 L55.7293448,13.0965517 C55.6663448,10.6137931 54.3965172,9.37241379 51.9196552,9.37241379 C50.7651724,9.37241379 49.7995862,9.83275862 49.0228966,10.7534483 C48.2463103,11.6741379 47.8579655,12.7758621 47.8579655,14.0586207 L47.8579655,22.4689655 Z M68.7958966,20.3586207 C70.2231724,20.3586207 71.3881034,19.8517241 72.2906897,18.837931 C73.2352759,17.8241379 73.7076207,16.5 73.7076207,14.8655172 C73.7076207,13.2724138 73.2352759,11.9586207 72.2906897,10.9241379 C71.3672069,9.88965517 70.2021724,9.37241379 68.7958966,9.37241379 C67.4105172,9.37241379 66.2454828,9.88965517 65.301,10.9241379 C64.3564138,11.9586207 63.884069,13.2724138 63.884069,14.8655172 C63.884069,16.4793103 64.3564138,17.7931034 65.301,18.8068966 C66.2454828,19.8413793 67.4105172,20.3586207 68.7958966,20.3586207 Z M41.7813103,2.01724138 C41.7813103,2.57586207 41.5818621,3.05172414 41.183069,3.44482759 C40.7842759,3.83793103 40.3014828,4.03448276 39.7346897,4.03448276 C39.168,4.03448276 38.6852069,3.83793103 38.2864138,3.44482759 C37.8875172,3.05172414 37.6881724,2.57586207 37.6881724,2.01724138 C37.6881724,1.45862069 37.8875172,0.982758621 38.2864138,0.589655172 C38.6852069,0.196551724 39.168,0 39.7346897,0 C40.3014828,0 40.7842759,0.196551724 41.183069,0.589655172 C41.5818621,0.982758621 41.7813103,1.45862069 41.7813103,2.01724138 Z" id="Fill-1" fill="#070707"></path>
                    <path d="M114.292759,6.76551724 C115.488621,6.76551724 116.585172,6.96724138 117.582414,7.37068966 C118.579655,7.77413793 119.440345,8.33275862 120.164483,9.04655172 C120.888621,9.76034483 121.455517,10.6137931 121.865172,11.6068966 C122.273793,12.6 122.478621,13.6862069 122.478621,14.8655172 C122.478621,16.0448276 122.273793,17.1310345 121.865172,18.1241379 C121.455517,19.1172414 120.888621,19.9706897 120.164483,20.6844828 C119.440345,21.3982759 118.579655,21.9568966 117.582414,22.3603448 C116.585172,22.7637931 115.488621,22.9655172 114.292759,22.9655172 C113.095862,22.9655172 111.99931,22.7637931 111.002069,22.3603448 C110.004828,21.9568966 109.144138,21.3982759 108.42,20.6844828 C107.695862,19.9706897 107.128966,19.1172414 106.720345,18.1241379 C106.31069,17.1310345 106.105862,16.0448276 106.105862,14.8655172 C106.105862,13.6862069 106.31069,12.6 106.720345,11.6068966 C107.128966,10.6137931 107.695862,9.76034483 108.42,9.04655172 C109.144138,8.33275862 110.004828,7.77413793 111.002069,7.37068966 C111.99931,6.96724138 113.095862,6.76551724 114.292759,6.76551724 Z M140.487931,22.4689655 L136.615862,22.4689655 L136.615862,20.637931 L136.363448,20.637931 C135.985862,21.2793103 135.398276,21.8275862 134.60069,22.2827586 C133.803103,22.737931 132.816207,22.9655172 131.641034,22.9655172 C130.654138,22.9655172 129.714828,22.7637931 128.823103,22.3603448 C127.931379,21.9568966 127.144138,21.3982759 126.461379,20.6844828 C125.779655,19.9706897 125.238621,19.1172414 124.840345,18.1241379 C124.441034,17.1310345 124.241379,16.0448276 124.241379,14.8655172 C124.241379,13.6862069 124.441034,12.6 124.840345,11.6068966 C125.238621,10.6137931 125.779655,9.76034483 126.461379,9.04655172 C127.144138,8.33275862 127.931379,7.77413793 128.823103,7.37068966 C129.714828,6.96724138 130.654138,6.76551724 131.641034,6.76551724 C132.816207,6.76551724 133.803103,6.99310345 134.60069,7.44827586 C135.398276,7.90344828 135.985862,8.45172414 136.363448,9.09310345 L136.615862,9.09310345 L136.363448,6.92068966 L136.363448,0.248275862 L140.487931,0.248275862 L140.487931,22.4689655 Z M147.037241,15.7965517 C147.121034,16.4173448 147.294828,16.95 147.556552,17.3948276 C147.81931,17.8396552 148.144138,18.212069 148.533103,18.512069 C148.921034,18.812069 149.346207,19.0293103 149.807586,19.1637931 C150.27,19.2982759 150.741724,19.3655172 151.224828,19.3655172 C152.16931,19.3655172 152.951379,19.1534483 153.571034,18.7293103 C154.189655,18.3051724 154.677931,17.7724138 155.034828,17.1310345 L158.466207,18.8068966 C157.752414,20.0482759 156.792414,21.0517241 155.585172,21.8172414 C154.378966,22.5827586 152.903793,22.9655172 151.161724,22.9655172 C149.986552,22.9655172 148.900345,22.7637931 147.903103,22.3603448 C146.905862,21.9568966 146.04,21.3931034 145.305517,20.6689655 C144.571034,19.9448276 143.998966,19.0913793 143.58931,18.1086207 C143.18069,17.1258621 142.975862,16.0448276 142.975862,14.8655172 C142.975862,13.7689655 143.175517,12.7293103 143.573793,11.7465517 C143.973103,10.7637931 144.528621,9.90517241 145.242414,9.17068966 C145.956207,8.4362069 146.801379,7.85172414 147.776897,7.41724138 C148.753448,6.98275862 149.82931,6.76551724 151.004483,6.76551724 C152.242759,6.76551724 153.344483,6.96724138 154.31069,7.37068966 C155.275862,7.77413793 156.083793,8.33275862 156.734483,9.04655172 C157.385172,9.76034483 157.878621,10.6034483 158.214828,11.5758621 C158.551034,12.5482759 158.718621,13.6034483 158.718621,14.7413793 C158.718621,14.8862069 158.718621,15.0103448 158.718621,15.1137931 C158.697931,15.237931 158.686552,15.3517241 158.686552,15.4551724 C158.665862,15.5586207 158.655517,15.6723103 158.655517,15.7965517 L147.037241,15.7965517 Z M84.696,22.4689655 L80.5084138,22.4689655 L80.5084138,0.248275862 L84.696,0.248275862 L91.5913448,12.0103448 L91.8432414,12.0103448 L98.7385862,0.248275862 L102.957621,0.248275862 L102.957621,22.4689655 L98.7385862,22.4689655 L98.7385862,11.5137931 L98.9904828,7.78965517 L98.7385862,7.78965517 L93.0081724,17.7517241 L90.4578621,17.7517241 L84.696,7.78965517 L84.4441034,7.78965517 L84.696,11.5137931 L84.696,22.4689655 Z M114.292759,19.2103448 C114.817241,19.2103448 115.326207,19.112069 115.819655,18.9155172 C116.313103,18.7189655 116.748621,18.4344828 117.126207,18.062069 C117.503793,17.6896552 117.802759,17.2344828 118.023103,16.6965517 C118.243448,16.1586207 118.354138,15.5482759 118.354138,14.8655172 C118.354138,14.1827586 118.243448,13.5724138 118.023103,13.0344828 C117.802759,12.4965517 117.503793,12.0413793 117.126207,11.6689655 C116.748621,11.2965517 116.313103,11.012069 115.819655,10.8155172 C115.326207,10.6189655 114.817241,10.5206897 114.292759,10.5206897 C113.746552,10.5206897 113.232414,10.6189655 112.74931,10.8155172 C112.267241,11.012069 111.836897,11.2965517 111.458276,11.6689655 C111.08069,12.0413793 110.781724,12.4965517 110.561379,13.0344828 C110.341034,13.5724138 110.230345,14.1827586 110.230345,14.8655172 C110.230345,15.5482759 110.341034,16.1586207 110.561379,16.6965517 C110.781724,17.2344828 111.08069,17.6896552 111.458276,18.062069 C111.836897,18.4344828 112.267241,18.7189655 112.74931,18.9155172 C113.232414,19.112069 113.746552,19.2103448 114.292759,19.2103448 Z M132.491379,19.2103448 C133.036552,19.2103448 133.555862,19.112069 134.04931,18.9155172 C134.542759,18.7189655 134.978276,18.4344828 135.355862,18.062069 C135.734483,17.6896552 136.038621,17.2344828 136.26931,16.6965517 C136.5,16.1586207 136.615862,15.5482759 136.615862,14.8655172 C136.615862,14.1827586 136.5,13.5724138 136.26931,13.0344828 C136.038621,12.4965517 135.734483,12.0413793 135.355862,11.6689655 C134.978276,11.2965517 134.542759,11.012069 134.04931,10.8155172 C133.555862,10.6189655 133.036552,10.5206897 132.491379,10.5206897 C131.945172,10.5206897 131.425862,10.6241379 130.932414,10.8310345 C130.438966,11.037931 130.003448,11.3275862 129.625862,11.7 C129.248276,12.0724138 128.944138,12.5275862 128.712414,13.0655172 C128.481724,13.6034483 128.366897,14.2034483 128.366897,14.8655172 C128.366897,15.5275862 128.481724,16.1275862 128.712414,16.6655172 C128.944138,17.2034483 129.248276,17.6586207 129.625862,18.0310345 C130.003448,18.4034483 130.438966,18.6931034 130.932414,18.9 C131.425862,19.1068966 131.945172,19.2103448 132.491379,19.2103448 Z M154.71931,12.9103448 C154.698621,12.6413793 154.609655,12.3413793 154.452414,12.0103448 C154.295172,11.6793103 154.063448,11.3689655 153.75931,11.0793103 C153.455172,10.7896552 153.077586,10.5517241 152.625517,10.3655172 C152.174483,10.1793103 151.634483,10.0862069 151.004483,10.0862069 C150.123103,10.0862069 149.346207,10.3344828 148.674828,10.8310345 C148.002414,11.3275862 147.53069,12.0206897 147.257586,12.9103448 L154.71931,12.9103448 Z" id="Fill-2" fill="#1D76FF"></path>
                    <path d="M154.976897,1.81272414 L153.927931,1.81272414 L153.927931,4.85410345 L153.21931,4.85410345 L153.21931,1.81272414 L152.16931,1.81272414 L152.16931,1.15065517 L154.976897,1.15065517 L154.976897,1.81272414 Z M156.178966,4.85410345 L155.48069,4.85410345 L155.48069,1.15065517 L156.178966,1.15065517 L157.328276,3.111 L157.369655,3.111 L158.518966,1.15065517 L159.222414,1.15065517 L159.222414,4.85410345 L158.518966,4.85410345 L158.518966,3.02824138 L158.561379,2.40755172 L158.518966,2.40755172 L157.564138,4.06789655 L157.138966,4.06789655 L156.178966,2.40755172 L156.136552,2.40755172 L156.178966,3.02824138 L156.178966,4.85410345 Z" id="Fill-3" fill="#1D76FF"></path>
                </g>
            </g>
        </g>
    </g>
</svg>